<svg width="32" height="32" viewBox="0 0 32 32" fill="none" xmlns="http://www.w3.org/2000/svg">
<path fill-rule="evenodd" clip-rule="evenodd" d="M13.3333 0.666626C6.33768 0.666626 0.666626 6.33768 0.666626 13.3333C0.666626 20.3289 6.33768 26 13.3333 26C16.1093 26 18.6768 25.1069 20.7641 23.5925L27.0572 29.8856C27.5778 30.4062 28.4221 30.4062 28.9428 29.8856L29.8856 28.9428C30.4062 28.4221 30.4062 27.5778 29.8856 27.0572L23.5925 20.7641C25.1069 18.6768 26 16.1093 26 13.3333C26 6.33768 20.3289 0.666626 13.3333 0.666626ZM4.66663 13.3333C4.66663 8.54682 8.54682 4.66663 13.3333 4.66663C18.1198 4.66663 22 8.54682 22 13.3333C22 18.1198 18.1198 22 13.3333 22C8.54682 22 4.66663 18.1198 4.66663 13.3333Z" fill="#475C7A"/>
</svg>
